<svg width="622" height="539" viewBox="0 0 622 539" fill="none" xmlns="http://www.w3.org/2000/svg">
<g clip-path="url(#clip0)">
<g opacity="0.8">
<path opacity="0.8" d="M319.886 181.987C379.781 181.987 428.336 144.372 428.336 97.9724C428.336 51.5725 379.781 13.958 319.886 13.958C259.99 13.958 211.436 51.5725 211.436 97.9724C211.436 144.372 259.99 181.987 319.886 181.987Z" fill="url(#paint0_linear)"/>
</g>
<path d="M319.886 180.121C378.452 180.121 425.929 143.342 425.929 97.9724C425.929 52.6031 378.452 15.824 319.886 15.824C261.32 15.824 213.842 52.6031 213.842 97.9724C213.842 143.342 261.32 180.121 319.886 180.121Z" fill="#F9D342"/>
<path opacity="0.1" d="M230.984 107.102C230.984 61.7335 278.456 24.9541 337.02 24.9541C355.203 24.854 373.204 28.5698 389.86 35.8613C371.223 23.2732 346.839 15.6241 320.152 15.6241C261.588 15.6241 214.108 52.4035 214.108 97.7725C214.108 128.236 235.516 154.826 267.319 169.014C245.053 153.952 230.984 131.805 230.984 107.102Z" fill="white"/>
<path opacity="0.2" d="M319.886 130.99L437.444 334.606L555.002 538.215H319.886H84.7695L202.328 334.606L319.886 130.99Z" fill="#F9D342"/>
<g opacity="0.3">
<path opacity="0.3" d="M347.779 419.272L356.91 392.178C360.049 382.743 360.074 372.548 356.981 363.098C353.889 353.647 347.841 345.44 339.731 339.686L339.805 339.642C336.213 337.113 332.275 335.118 328.112 333.718V333.718L327.987 333.673L327.846 333.629C323.805 332.262 319.593 331.47 315.332 331.274C313.825 331.196 312.315 331.196 310.808 331.274C308.193 331.411 305.594 331.77 303.04 332.348C302.299 332.511 301.559 332.696 300.885 332.896C300.211 333.096 299.456 333.311 298.753 333.54C297.346 334.007 295.961 334.532 294.606 335.132C293.925 335.428 293.251 335.739 292.592 336.072C290.599 337.056 288.681 338.185 286.853 339.449C286.239 339.871 285.639 340.308 285.046 340.752C277.727 346.318 272.248 353.954 269.319 362.67L254.968 405.359C252.71 412.054 252.031 419.18 252.984 426.181C253.132 427.255 253.317 428.321 253.532 429.38C253.746 430.439 254.013 431.483 254.272 432.52C254.472 433.208 254.679 433.897 254.909 434.578C255.25 435.592 255.649 436.607 256.027 437.599C256.301 438.258 256.59 438.917 256.893 439.569C257.493 440.865 258.16 442.131 258.878 443.367C259.596 444.604 260.359 445.811 261.218 446.981C261.84 447.855 262.499 448.714 263.18 449.543C264.098 450.654 265.061 451.764 266.083 452.749C270.506 457.208 275.799 460.709 281.633 463.035V463.035L281.885 463.138C282.198 462.582 282.544 462.046 282.921 461.531C285.143 458.488 289.008 456.348 292.688 457.148C292.955 457.207 293.221 457.288 293.488 457.37C295.354 458.029 297.19 459.206 298.99 459.784C299.644 460.078 300.355 460.226 301.072 460.217C301.79 460.208 302.497 460.042 303.144 459.732C306.742 457.814 305.409 451.765 308.497 449.114C308.641 448.991 308.792 448.878 308.949 448.773C308.905 448.719 308.866 448.662 308.83 448.603C311.215 447.122 314.517 448.107 317.264 449.062C320.226 450.106 324.092 450.809 326.15 448.388C327.542 446.729 327.439 444.204 328.764 442.464C330.304 440.465 333.207 440.243 335.717 440.598L335.843 440.635C340.656 442.62 345.914 439.324 345.543 434.134C345.106 427.21 347.283 420.687 347.779 419.272Z" fill="url(#paint1_linear)"/>
</g>
<path d="M283.758 459.251C285.92 456.289 289.63 454.215 293.184 455.023C296.739 455.83 300.108 459.214 303.27 457.518C307.594 455.208 304.529 446.714 311.548 446.085C313.011 445.988 314.476 446.242 315.821 446.826C318.783 448.033 323.418 449.395 325.699 446.677C327.039 445.078 326.943 442.642 328.224 440.983C329.705 439.058 332.526 438.814 334.932 439.184L335.051 439.221C339.694 441.139 344.773 437.955 344.411 432.949C343.944 426.285 346.062 420.005 346.521 418.643L355.318 392.497C359.06 381.288 358.212 369.054 352.96 358.469C347.708 347.883 338.479 339.807 327.291 336.006V336.006C316.083 332.269 303.852 333.12 293.27 338.373C282.687 343.626 274.614 352.854 270.815 364.04L256.946 405.159C253.341 415.973 254.002 427.756 258.795 438.099C263.587 448.442 272.148 456.564 282.729 460.806C283.041 460.268 283.385 459.748 283.758 459.251V459.251Z" fill="white"/>
<path opacity="0.2" d="M300.152 364.751C302.814 364.751 304.973 362.593 304.973 359.931C304.973 357.268 302.814 355.11 300.152 355.11C297.49 355.11 295.332 357.268 295.332 359.931C295.332 362.593 297.49 364.751 300.152 364.751Z" fill="black"/>
<path opacity="0.2" d="M327.564 373.97C330.226 373.97 332.385 371.812 332.385 369.15C332.385 366.487 330.226 364.329 327.564 364.329C324.902 364.329 322.744 366.487 322.744 369.15C322.744 371.812 324.902 373.97 327.564 373.97Z" fill="black"/>
<path d="M312.297 384.399C313.57 380.616 312.557 376.861 310.033 376.012C307.51 375.163 304.433 377.541 303.16 381.324C301.887 385.107 302.9 388.862 305.423 389.711C307.946 390.56 311.024 388.182 312.297 384.399Z" fill="#E0E0E0"/>
<path d="M409.135 368.224C413.127 368.224 416.362 364.988 416.362 360.997C416.362 357.006 413.127 353.77 409.135 353.77C405.144 353.77 401.908 357.006 401.908 360.997C401.908 364.988 405.144 368.224 409.135 368.224Z" fill="white"/>
<path d="M432.031 353.244C434.026 353.244 435.644 351.626 435.644 349.631C435.644 347.635 434.026 346.017 432.031 346.017C430.035 346.017 428.417 347.635 428.417 349.631C428.417 351.626 430.035 353.244 432.031 353.244Z" fill="white"/>
<g opacity="0.5">
<g opacity="0.3">
<path opacity="0.3" d="M357.405 128.265L366.536 101.171C369.675 91.7358 369.7 81.5413 366.607 72.0905C363.515 62.6397 357.467 54.4325 349.356 48.6789L349.431 48.6345C345.839 46.1062 341.901 44.1109 337.738 42.7107L337.613 42.6662L337.472 42.6218C333.431 41.2552 329.219 40.4625 324.958 40.2671C323.451 40.1893 321.941 40.1893 320.433 40.2671C317.819 40.404 315.22 40.7632 312.666 41.3408C311.925 41.5037 311.185 41.6888 310.511 41.8887C309.837 42.0887 309.082 42.3034 308.379 42.533C306.972 42.9995 305.587 43.5252 304.232 44.125C303.551 44.4212 302.877 44.7322 302.218 45.0654C300.225 46.0493 298.307 47.1778 296.479 48.442C295.865 48.864 295.265 49.3009 294.672 49.7452C287.353 55.3113 281.874 62.9471 278.945 71.6633L264.594 114.352C262.336 121.047 261.656 128.173 262.61 135.174C262.758 136.248 262.943 137.314 263.158 138.373C263.372 139.432 263.639 140.476 263.898 141.512C264.098 142.201 264.305 142.89 264.535 143.571C264.876 144.585 265.275 145.6 265.653 146.592C265.927 147.251 266.216 147.91 266.519 148.562C267.119 149.858 267.786 151.124 268.504 152.36C269.222 153.597 269.985 154.804 270.844 155.974C271.466 156.848 272.125 157.707 272.806 158.536C273.724 159.647 274.687 160.72 275.709 161.742C280.132 166.201 285.425 169.702 291.259 172.027V172.027L291.51 172.131C291.824 171.575 292.17 171.039 292.547 170.524C294.769 167.481 298.634 165.341 302.314 166.141C302.581 166.2 302.847 166.281 303.114 166.363C304.98 167.022 306.816 168.199 308.616 168.777C309.27 169.071 309.981 169.219 310.698 169.21C311.416 169.201 312.123 169.035 312.77 168.725C316.368 166.807 315.035 160.757 318.123 158.106C318.267 157.984 318.418 157.87 318.575 157.766C318.531 157.712 318.492 157.655 318.456 157.596C320.841 156.115 324.143 157.099 326.89 158.055C329.852 159.099 333.718 159.802 335.776 157.381C337.168 155.722 337.065 153.197 338.39 151.457C339.93 149.458 342.833 149.236 345.343 149.591H345.469C350.282 151.575 355.539 148.28 355.169 143.09C354.732 136.203 356.909 129.68 357.405 128.265Z" fill="url(#paint2_linear)"/>
</g>
<path opacity="0.5" d="M293.384 168.244C295.546 165.282 299.256 163.208 302.81 164.015C306.365 164.823 309.734 168.207 312.896 166.511C317.22 164.201 314.154 155.707 321.174 155.078C322.637 154.981 324.102 155.235 325.447 155.818C328.409 157.025 333.044 158.388 335.325 155.67C336.665 154.071 336.569 151.635 337.85 149.976C339.331 148.051 342.152 147.806 344.558 148.177L344.677 148.214C349.32 150.132 354.399 146.948 354.037 141.942C353.57 135.278 355.688 128.998 356.147 127.636L364.944 101.49C368.685 90.281 367.838 78.0469 362.586 67.4614C357.334 56.8759 348.105 48.7999 336.917 44.9987V44.9987C325.709 41.2619 313.478 42.1129 302.896 47.3658C292.313 52.6188 284.24 61.8466 280.441 73.0332L266.571 114.152C262.967 124.966 263.628 136.749 268.421 147.092C273.213 157.435 281.774 165.557 292.355 169.799C292.667 169.261 293.011 168.741 293.384 168.244Z" fill="white"/>
<path opacity="0.2" d="M309.778 73.744C312.44 73.744 314.599 71.5858 314.599 68.9235C314.599 66.2612 312.44 64.103 309.778 64.103C307.116 64.103 304.958 66.2612 304.958 68.9235C304.958 71.5858 307.116 73.744 309.778 73.744Z" fill="black"/>
<path opacity="0.2" d="M337.191 82.963C339.853 82.963 342.011 80.8047 342.011 78.1425C342.011 75.4802 339.853 73.322 337.191 73.322C334.528 73.322 332.37 75.4802 332.37 78.1425C332.37 80.8047 334.528 82.963 337.191 82.963Z" fill="black"/>
</g>
<path opacity="0.1" d="M421.716 73.6255C423.093 78.9461 423.787 84.4202 423.782 89.916C423.782 135.285 376.31 172.064 317.746 172.064C269.815 172.035 229.318 147.407 216.219 113.611C225.949 151.205 268.793 179.514 320.189 179.514C378.754 179.514 426.233 142.734 426.233 97.3652C426.218 89.2398 424.686 81.1887 421.716 73.6255V73.6255Z" fill="black"/>
<g opacity="0.8">
<path opacity="0.8" d="M319.886 191.109C441.009 191.109 539.2 165.446 539.2 133.789C539.2 102.132 441.009 76.469 319.886 76.469C198.762 76.469 100.571 102.132 100.571 133.789C100.571 165.446 198.762 191.109 319.886 191.109Z" fill="url(#paint3_linear)"/>
</g>
<path d="M319.886 78.3646C202.758 78.3646 107.799 103.178 107.799 133.797H531.973C531.973 103.178 437.015 78.3646 319.886 78.3646Z" fill="white"/>
<path d="M319.886 189.221C437.015 189.221 531.973 164.408 531.973 133.797H107.799C107.799 164.408 202.758 189.221 319.886 189.221Z" fill="white"/>
<path opacity="0.05" d="M319.886 189.221C437.015 189.221 531.973 164.408 531.973 133.797H107.799C107.799 164.408 202.758 189.221 319.886 189.221Z" fill="black"/>
<path opacity="0.05" d="M408.358 119.328H231.414C224.371 119.328 218.663 125.037 218.663 132.079V135.5C218.663 142.542 224.371 148.251 231.414 148.251H408.358C415.4 148.251 421.109 142.542 421.109 135.5V132.079C421.109 125.037 415.4 119.328 408.358 119.328Z" fill="black"/>
<path opacity="0.5" d="M99.1423 42.8069C98.5305 42.54 98.038 42.0577 97.7582 41.4517C97.4784 40.8457 97.4307 40.158 97.6243 39.5192C97.6554 39.4206 97.6752 39.3187 97.6835 39.2156V39.2156C97.7024 38.9226 97.6261 38.6313 97.466 38.3851C97.3059 38.1389 97.0706 37.9511 96.7951 37.8495C96.5195 37.748 96.2186 37.7382 95.937 37.8215C95.6554 37.9049 95.4083 38.077 95.2325 38.3122C95.1732 38.3952 95.1236 38.4846 95.0844 38.5788C94.8188 39.1917 94.3367 39.6852 93.7303 39.9652C93.1238 40.2452 92.4355 40.292 91.7967 40.0968C91.6979 40.0665 91.5961 40.0466 91.4931 40.0376C91.2001 40.0187 90.9088 40.0949 90.6626 40.255C90.4165 40.4151 90.2286 40.6505 90.127 40.926C90.0255 41.2015 90.0157 41.5025 90.099 41.7841C90.1824 42.0656 90.3545 42.3127 90.5898 42.4885V42.4885C90.6715 42.5516 90.7612 42.6039 90.8563 42.644C91.4681 42.911 91.9606 43.3932 92.2404 43.9993C92.5202 44.6053 92.5679 45.2929 92.3743 45.9317C92.3439 46.028 92.3241 46.1274 92.3151 46.2279V46.2279C92.2944 46.5216 92.3693 46.8141 92.5288 47.0616C92.6883 47.3092 92.9236 47.4984 93.1996 47.6009C93.4756 47.7035 93.7773 47.7139 94.0597 47.6305C94.3421 47.5472 94.5899 47.3747 94.766 47.1387C94.8269 47.0541 94.8767 46.962 94.9141 46.8647C95.1864 46.2587 95.6712 45.7733 96.277 45.5004C96.8828 45.2275 97.5675 45.1861 98.2018 45.3838C98.3007 45.4141 98.4025 45.4339 98.5054 45.443C98.7985 45.4619 99.0898 45.3856 99.3359 45.2255C99.5821 45.0655 99.77 44.8301 99.8715 44.5546C99.9731 44.279 99.9829 43.9781 99.8995 43.6965C99.8162 43.4149 99.644 43.1679 99.4088 42.9921V42.9921C99.3288 42.9186 99.2391 42.8563 99.1423 42.8069V42.8069Z" fill="#4D8AF0"/>
<path opacity="0.5" d="M476.045 269.393C475.44 269.119 474.955 268.634 474.683 268.029C474.41 267.423 474.368 266.739 474.564 266.105C474.595 266.006 474.615 265.904 474.623 265.801V265.801C474.642 265.508 474.566 265.217 474.405 264.971C474.245 264.725 474.01 264.537 473.735 264.435C473.459 264.334 473.158 264.324 472.876 264.407C472.595 264.491 472.348 264.663 472.172 264.898C472.113 264.981 472.063 265.07 472.024 265.165C471.758 265.777 471.276 266.271 470.67 266.551C470.063 266.831 469.375 266.878 468.736 266.682C468.637 266.652 468.536 266.632 468.433 266.623V266.623C468.14 266.604 467.848 266.681 467.602 266.841C467.356 267.001 467.168 267.236 467.067 267.512C466.965 267.787 466.955 268.088 467.038 268.37C467.122 268.651 467.294 268.898 467.529 269.074V269.074C467.611 269.137 467.701 269.19 467.796 269.23C468.401 269.503 468.885 269.988 469.158 270.594C469.431 271.199 469.473 271.883 469.277 272.517C469.246 272.614 469.226 272.713 469.217 272.814V272.814C469.197 273.107 469.272 273.4 469.431 273.647C469.591 273.895 469.826 274.084 470.102 274.187C470.378 274.289 470.68 274.3 470.962 274.216C471.245 274.133 471.492 273.96 471.668 273.724V273.724C471.729 273.64 471.779 273.548 471.817 273.45C472.089 272.844 472.574 272.359 473.179 272.086C473.785 271.813 474.47 271.772 475.104 271.969C475.203 272 475.305 272.02 475.408 272.029V272.029C475.701 272.048 475.992 271.971 476.238 271.811C476.485 271.651 476.672 271.416 476.774 271.14C476.876 270.865 476.885 270.564 476.802 270.282C476.719 270.001 476.546 269.754 476.311 269.578C476.231 269.504 476.142 269.442 476.045 269.393V269.393Z" fill="#4D8AF0"/>
<path opacity="0.5" d="M59.8971 374.54C59.2854 374.273 58.7929 373.791 58.513 373.185C58.2332 372.579 58.1856 371.891 58.3792 371.253C58.4102 371.154 58.4301 371.052 58.4384 370.949V370.949C58.4573 370.656 58.381 370.365 58.2209 370.118C58.0608 369.872 57.8255 369.684 57.5499 369.583C57.2744 369.481 56.9735 369.471 56.6919 369.555C56.4103 369.638 56.1632 369.81 55.9874 370.046V370.046C55.9281 370.129 55.8785 370.218 55.8393 370.312C55.5737 370.925 55.0916 371.419 54.4851 371.699C53.8787 371.979 53.1904 372.025 52.5516 371.83C52.4528 371.8 52.351 371.78 52.248 371.771V371.771C51.955 371.752 51.6637 371.828 51.4175 371.988C51.1713 372.148 50.9835 372.384 50.8819 372.659C50.7804 372.935 50.7705 373.236 50.8539 373.517C50.9373 373.799 51.1094 374.046 51.3446 374.222V374.222C51.4264 374.285 51.516 374.337 51.6112 374.377C52.223 374.644 52.7155 375.127 52.9953 375.733C53.2751 376.339 53.3228 377.026 53.1292 377.665C53.0988 377.761 53.0789 377.861 53.0699 377.961V377.961C53.0492 378.255 53.1242 378.547 53.2837 378.795C53.4431 379.042 53.6785 379.232 53.9545 379.334C54.2304 379.437 54.5322 379.447 54.8146 379.364C55.097 379.281 55.3448 379.108 55.5209 378.872C55.5818 378.787 55.6315 378.695 55.669 378.598C55.9412 377.992 56.4261 377.507 57.0319 377.234C57.6377 376.961 58.3224 376.919 58.9567 377.117C59.0556 377.147 59.1573 377.167 59.2603 377.176C59.5534 377.195 59.8447 377.119 60.0908 376.959C60.337 376.799 60.5249 376.563 60.6264 376.288C60.728 376.012 60.7378 375.711 60.6544 375.43C60.571 375.148 60.3989 374.901 60.1637 374.725V374.725C60.0836 374.652 59.994 374.59 59.8971 374.54V374.54Z" fill="#4D8AF0"/>
<path opacity="0.5" d="M19.1707 129.443C18.5656 129.169 18.0813 128.684 17.8086 128.079C17.5359 127.473 17.4936 126.789 17.6897 126.155C17.7208 126.056 17.7407 125.954 17.7489 125.851V125.851C17.7678 125.558 17.6916 125.267 17.5315 125.021C17.3714 124.775 17.136 124.587 16.8605 124.485C16.585 124.384 16.284 124.374 16.0024 124.457C15.7209 124.541 15.4738 124.713 15.298 124.948V124.948C15.2387 125.031 15.189 125.12 15.1499 125.215C14.8842 125.827 14.4021 126.321 13.7957 126.601C13.1893 126.881 12.5009 126.928 11.8622 126.732C11.7633 126.702 11.6616 126.682 11.5586 126.673V126.673C11.2655 126.654 10.9742 126.731 10.7281 126.891C10.4819 127.051 10.294 127.286 10.1925 127.562C10.0909 127.837 10.0811 128.138 10.1645 128.42C10.2479 128.701 10.42 128.948 10.6552 129.124C10.737 129.187 10.8266 129.24 10.9218 129.28C11.5335 129.547 12.026 130.029 12.3059 130.635C12.5857 131.241 12.6333 131.929 12.4397 132.567C12.4094 132.664 12.3895 132.763 12.3805 132.864V132.864C12.3598 133.157 12.4348 133.45 12.5942 133.697C12.7537 133.945 12.989 134.134 13.265 134.237C13.541 134.339 13.8428 134.35 14.1252 134.266C14.4076 134.183 14.6554 134.01 14.8315 133.774V133.774C14.8923 133.69 14.9421 133.598 14.9796 133.5C15.2518 132.894 15.7366 132.409 16.3424 132.136C16.9482 131.863 17.633 131.822 18.2673 132.019C18.3661 132.05 18.4679 132.07 18.5709 132.079C18.8639 132.098 19.1552 132.021 19.4014 131.861C19.6476 131.701 19.8354 131.466 19.937 131.19C20.0385 130.915 20.0483 130.614 19.965 130.332C19.8816 130.051 19.7095 129.804 19.4743 129.628V129.628C19.3828 129.551 19.2805 129.489 19.1707 129.443V129.443Z" fill="#4D8AF0"/>
<path opacity="0.5" d="M468.64 5.04264C468.035 4.76914 467.551 4.28415 467.278 3.67877C467.005 3.07339 466.963 2.38928 467.159 1.75493C467.19 1.65628 467.21 1.55444 467.218 1.45133V1.45133C467.237 1.15829 467.161 0.866986 467.001 0.620818C466.841 0.374649 466.605 0.186794 466.33 0.0852389C466.054 -0.0163161 465.753 -0.0261341 465.472 0.0572462C465.19 0.140627 464.943 0.312742 464.767 0.547952V0.547952C464.708 0.63092 464.658 0.72035 464.619 0.814524C464.347 1.4206 463.862 1.90596 463.256 2.17883C462.651 2.45171 461.966 2.49321 461.332 2.29548C461.233 2.26519 461.131 2.24533 461.028 2.23624V2.23624C460.709 2.16928 460.376 2.21904 460.091 2.37647C459.805 2.53389 459.585 2.78855 459.471 3.09417C459.358 3.39979 459.357 3.7361 459.47 4.04201C459.583 4.34791 459.802 4.60312 460.088 4.76126V4.76126C460.169 4.82436 460.259 4.87662 460.354 4.91676C460.959 5.19027 461.443 5.67525 461.716 6.28063C461.989 6.88601 462.031 7.57013 461.835 8.20448C461.805 8.30078 461.785 8.40009 461.776 8.50067V8.50067C461.745 8.80558 461.817 9.11213 461.981 9.37079C462.146 9.62946 462.393 9.82511 462.682 9.92613C462.971 10.0272 463.286 10.0277 463.576 9.92755C463.866 9.82744 464.113 9.63257 464.279 9.37443V9.37443C464.339 9.2898 464.389 9.19772 464.427 9.10045C464.699 8.49437 465.184 8.00902 465.79 7.73614C466.395 7.46327 467.08 7.42177 467.714 7.6195C467.813 7.64979 467.915 7.66965 468.018 7.67874V7.67874C468.311 7.69764 468.602 7.62136 468.849 7.46126C469.095 7.30116 469.283 7.06582 469.384 6.79029C469.486 6.51475 469.495 6.21379 469.412 5.93222C469.329 5.65066 469.157 5.40356 468.921 5.22776V5.22776C468.837 5.15313 468.742 5.09081 468.64 5.04264V5.04264Z" fill="#4D8AF0"/>
<g opacity="0.5">
<path opacity="0.5" d="M83.6736 190.932H81.4521V203.52H83.6736V190.932Z" fill="#47E6B1"/>
<path opacity="0.5" d="M88.8569 198.337V196.115H76.2688V198.337H88.8569Z" fill="#47E6B1"/>
</g>
<g opacity="0.5">
<path opacity="0.5" d="M616.817 131.694H614.595V144.282H616.817V131.694Z" fill="#47E6B1"/>
<path opacity="0.5" d="M622 139.098V136.877H609.412V139.098H622Z" fill="#47E6B1"/>
</g>
<g opacity="0.5">
<path opacity="0.5" d="M542.769 338.287H540.548V350.875H542.769V338.287Z" fill="#47E6B1"/>
<path opacity="0.5" d="M547.952 345.691V343.47H535.364V345.691H547.952Z" fill="#47E6B1"/>
</g>
<path opacity="0.5" d="M535.364 65.0508C537.818 65.0508 539.807 63.0617 539.807 60.608C539.807 58.1543 537.818 56.1651 535.364 56.1651C532.911 56.1651 530.921 58.1543 530.921 60.608C530.921 63.0617 532.911 65.0508 535.364 65.0508Z" fill="#F55F44"/>
<path opacity="0.5" d="M4.44286 13.958C6.89658 13.958 8.88571 11.9688 8.88571 9.51512C8.88571 7.0614 6.89658 5.07227 4.44286 5.07227C1.98913 5.07227 0 7.0614 0 9.51512C0 11.9688 1.98913 13.958 4.44286 13.958Z" fill="#F55F44"/>
<path opacity="0.5" d="M137.729 269.422C140.182 269.422 142.171 267.433 142.171 264.979C142.171 262.526 140.182 260.537 137.729 260.537C135.275 260.537 133.286 262.526 133.286 264.979C133.286 267.433 135.275 269.422 137.729 269.422Z" fill="#F55F44"/>
<path opacity="0.05" d="M173.271 119.535C187.176 119.535 198.448 117.214 198.448 114.352C198.448 111.489 187.176 109.168 173.271 109.168C159.367 109.168 148.095 111.489 148.095 114.352C148.095 117.214 159.367 119.535 173.271 119.535Z" fill="black"/>
<path opacity="0.05" d="M173.271 158.78C187.176 158.78 198.448 156.46 198.448 153.597C198.448 150.734 187.176 148.414 173.271 148.414C159.367 148.414 148.095 150.734 148.095 153.597C148.095 156.46 159.367 158.78 173.271 158.78Z" fill="black"/>
<path opacity="0.05" d="M459.836 119.535C473.74 119.535 485.012 117.214 485.012 114.352C485.012 111.489 473.74 109.168 459.836 109.168C445.931 109.168 434.66 111.489 434.66 114.352C434.66 117.214 445.931 119.535 459.836 119.535Z" fill="black"/>
<path opacity="0.05" d="M459.836 158.78C473.74 158.78 485.012 156.46 485.012 153.597C485.012 150.734 473.74 148.414 459.836 148.414C445.931 148.414 434.66 150.734 434.66 153.597C434.66 156.46 445.931 158.78 459.836 158.78Z" fill="black"/>
<path opacity="0.05" d="M319.886 97.3208C333.79 97.3208 345.062 95.0001 345.062 92.1375C345.062 89.2748 333.79 86.9541 319.886 86.9541C305.981 86.9541 294.709 89.2748 294.709 92.1375C294.709 95.0001 305.981 97.3208 319.886 97.3208Z" fill="black"/>
<path opacity="0.05" d="M338.398 43.266C352.302 43.266 363.574 40.9454 363.574 38.0827C363.574 35.22 352.302 32.8994 338.398 32.8994C324.493 32.8994 313.222 35.22 313.222 38.0827C313.222 40.9454 324.493 43.266 338.398 43.266Z" fill="black"/>
<path opacity="0.05" d="M290.267 65.4803C304.171 65.4803 315.443 63.1596 315.443 60.297C315.443 57.4343 304.171 55.1136 290.267 55.1136C276.362 55.1136 265.09 57.4343 265.09 60.297C265.09 63.1596 276.362 65.4803 290.267 65.4803Z" fill="black"/>
<path opacity="0.05" d="M382.826 75.1065C396.731 75.1065 408.002 72.7858 408.002 69.9232C408.002 67.0605 396.731 64.7398 382.826 64.7398C368.922 64.7398 357.65 67.0605 357.65 69.9232C357.65 72.7858 368.922 75.1065 382.826 75.1065Z" fill="black"/>
<path opacity="0.05" d="M319.886 174.33C333.79 174.33 345.062 172.01 345.062 169.147C345.062 166.284 333.79 163.964 319.886 163.964C305.981 163.964 294.709 166.284 294.709 169.147C294.709 172.01 305.981 174.33 319.886 174.33Z" fill="black"/>
</g>
<defs>
<linearGradient id="paint0_linear" x1="319.886" y1="181.994" x2="319.886" y2="13.958" gradientUnits="userSpaceOnUse">
<stop stop-color="#808080" stop-opacity="0.25"/>
<stop offset="0.54" stop-color="#808080" stop-opacity="0.12"/>
<stop offset="1" stop-color="#808080" stop-opacity="0.1"/>
</linearGradient>
<linearGradient id="paint1_linear" x1="-34875.4" y1="254913" x2="-27047.4" y2="231674" gradientUnits="userSpaceOnUse">
<stop stop-color="#808080" stop-opacity="0.25"/>
<stop offset="0.54" stop-color="#808080" stop-opacity="0.12"/>
<stop offset="1" stop-color="#808080" stop-opacity="0.1"/>
</linearGradient>
<linearGradient id="paint2_linear" x1="-30329.8" y1="203580" x2="-22501.8" y2="180340" gradientUnits="userSpaceOnUse">
<stop stop-color="#808080" stop-opacity="0.25"/>
<stop offset="0.54" stop-color="#808080" stop-opacity="0.12"/>
<stop offset="1" stop-color="#808080" stop-opacity="0.1"/>
</linearGradient>
<linearGradient id="paint3_linear" x1="189588" y1="29664" x2="189588" y2="11915.4" gradientUnits="userSpaceOnUse">
<stop stop-color="#808080" stop-opacity="0.25"/>
<stop offset="0.54" stop-color="#808080" stop-opacity="0.12"/>
<stop offset="1" stop-color="#808080" stop-opacity="0.1"/>
</linearGradient>
<clipPath id="clip0">
<rect width="622" height="538.215" fill="white"/>
</clipPath>
</defs>
</svg>
