<svg width="512" height="512" viewBox="0 0 512 512" fill="none" xmlns="http://www.w3.org/2000/svg">
<rect width="512" height="512" rx="30" fill="#2B2B2B"/>
<rect x="95.6163" y="94.6163" width="321.767" height="321.767" stroke="white" stroke-width="17.2325"/>
<path d="M208.475 150.8V229.9H193.446L154.009 181.875V229.9H135.929V150.8H151.071L190.395 198.825V150.8H208.475ZM262.333 231.256C251.033 231.256 242.219 228.13 235.891 221.877C229.638 215.624 226.512 206.697 226.512 195.096V150.8H244.818V194.418C244.818 208.581 250.694 215.662 262.446 215.662C268.171 215.662 272.54 213.967 275.554 210.577C278.567 207.112 280.074 201.725 280.074 194.418V150.8H298.154V195.096C298.154 206.697 294.99 215.624 288.662 221.877C282.409 228.13 273.633 231.256 262.333 231.256ZM194.011 326.768C198.531 328.199 202.072 330.61 204.633 334C207.194 337.315 208.475 341.42 208.475 346.317C208.475 353.248 205.763 358.596 200.339 362.363C194.99 366.054 187.156 367.9 176.835 367.9H135.929V288.8H174.575C184.218 288.8 191.6 290.646 196.723 294.337C201.921 298.028 204.52 303.038 204.52 309.366C204.52 313.208 203.578 316.636 201.695 319.649C199.887 322.662 197.326 325.035 194.011 326.768ZM154.122 302.586V321.231H172.315C176.835 321.231 180.263 320.44 182.598 318.858C184.933 317.276 186.101 314.941 186.101 311.852C186.101 308.763 184.933 306.466 182.598 304.959C180.263 303.377 176.835 302.586 172.315 302.586H154.122ZM175.479 354.114C180.3 354.114 183.916 353.323 186.327 351.741C188.813 350.159 190.056 347.711 190.056 344.396C190.056 337.842 185.197 334.565 175.479 334.565H154.122V354.114H175.479ZM222.334 288.8H240.64V352.984H280.303V367.9H222.334V288.8ZM299.376 368.804C296.288 368.804 293.689 367.749 291.579 365.64C289.47 363.531 288.415 360.894 288.415 357.73C288.415 354.491 289.47 351.892 291.579 349.933C293.689 347.899 296.288 346.882 299.376 346.882C302.465 346.882 305.064 347.899 307.173 349.933C309.283 351.892 310.337 354.491 310.337 357.73C310.337 360.894 309.283 363.531 307.173 365.64C305.064 367.749 302.465 368.804 299.376 368.804Z" fill="white"/>
<path d="M264.365 312.823C260.96 312.823 257.901 312.115 255.189 310.699C252.477 309.283 250.353 307.324 248.816 304.823C247.279 302.292 246.511 299.444 246.511 296.28C246.511 293.116 247.279 290.283 248.816 287.782C250.353 285.251 252.477 283.277 255.189 281.861C257.901 280.445 260.96 279.737 264.365 279.737C267.77 279.737 270.828 280.445 273.54 281.861C276.252 283.277 278.377 285.251 279.914 287.782C281.45 290.283 282.219 293.116 282.219 296.28C282.219 299.444 281.45 302.292 279.914 304.823C278.377 307.324 276.252 309.283 273.54 310.699C270.828 312.115 267.77 312.823 264.365 312.823ZM264.365 304.19C265.691 304.19 266.881 303.874 267.936 303.241C269.02 302.578 269.879 301.659 270.512 300.484C271.145 299.278 271.461 297.877 271.461 296.28C271.461 294.683 271.145 293.297 270.512 292.122C269.879 290.916 269.02 289.997 267.936 289.364C266.881 288.701 265.691 288.37 264.365 288.37C263.039 288.37 261.834 288.701 260.749 289.364C259.694 289.997 258.85 290.916 258.218 292.122C257.585 293.297 257.268 294.683 257.268 296.28C257.268 297.877 257.585 299.278 258.218 300.484C258.85 301.659 259.694 302.578 260.749 303.241C261.834 303.874 263.039 304.19 264.365 304.19ZM270.492 330.421H279.758V343.8C277.889 345.096 275.72 346.091 273.249 346.784C270.778 347.477 268.352 347.823 265.972 347.823C262.597 347.823 259.568 347.13 256.887 345.744C254.205 344.328 252.095 342.369 250.559 339.868C249.052 337.337 248.299 334.474 248.299 331.28C248.299 328.086 249.052 325.238 250.559 322.737C252.095 320.206 254.22 318.247 256.932 316.861C259.674 315.445 262.763 314.737 266.198 314.737C269.301 314.737 272.074 315.264 274.515 316.319C276.985 317.343 279.035 318.85 280.662 320.839L273.837 326.85C271.848 324.53 269.482 323.37 266.74 323.37C264.39 323.37 262.521 324.078 261.135 325.494C259.749 326.911 259.056 328.839 259.056 331.28C259.056 333.661 259.734 335.574 261.09 337.02C262.476 338.467 264.314 339.19 266.605 339.19C267.961 339.19 269.256 338.934 270.492 338.422V330.421Z" fill="#F9D342"/>
</svg>
