<svg width="60" height="60" viewBox="0 0 60 60" fill="none" xmlns="http://www.w3.org/2000/svg">
<rect x="1.525" y="1.525" width="56.95" height="56.95" stroke="white" stroke-width="3.05"/>
<path d="M21.5 11V25H18.84L11.86 16.5V25H8.66V11H11.34L18.3 19.5V11H21.5ZM31.0323 25.24C29.0323 25.24 27.4723 24.6867 26.3523 23.58C25.2457 22.4733 24.6923 20.8933 24.6923 18.84V11H27.9323V18.72C27.9323 21.2267 28.9723 22.48 31.0523 22.48C32.0657 22.48 32.839 22.18 33.3723 21.58C33.9057 20.9667 34.1723 20.0133 34.1723 18.72V11H37.3723V18.84C37.3723 20.8933 36.8123 22.4733 35.6923 23.58C34.5857 24.6867 33.0323 25.24 31.0323 25.24ZM18.94 41.72C19.74 41.9733 20.3667 42.4 20.82 43C21.2733 43.5867 21.5 44.3133 21.5 45.18C21.5 46.4067 21.02 47.3533 20.06 48.02C19.1133 48.6733 17.7267 49 15.9 49H8.66V35H15.5C17.2067 35 18.5133 35.3267 19.42 35.98C20.34 36.6333 20.8 37.52 20.8 38.64C20.8 39.32 20.6333 39.9267 20.3 40.46C19.98 40.9933 19.5267 41.4133 18.94 41.72ZM11.88 37.44V40.74H15.1C15.9 40.74 16.5067 40.6 16.92 40.32C17.3333 40.04 17.54 39.6267 17.54 39.08C17.54 38.5333 17.3333 38.1267 16.92 37.86C16.5067 37.58 15.9 37.44 15.1 37.44H11.88ZM15.66 46.56C16.5133 46.56 17.1533 46.42 17.58 46.14C18.02 45.86 18.24 45.4267 18.24 44.84C18.24 43.68 17.38 43.1 15.66 43.1H11.88V46.56H15.66ZM23.953 35H27.193V46.36H34.213V49H23.953V35ZM37.5888 49.16C37.0421 49.16 36.5821 48.9733 36.2088 48.6C35.8354 48.2267 35.6488 47.76 35.6488 47.2C35.6488 46.6267 35.8354 46.1667 36.2088 45.82C36.5821 45.46 37.0421 45.28 37.5888 45.28C38.1354 45.28 38.5954 45.46 38.9688 45.82C39.3421 46.1667 39.5288 46.6267 39.5288 47.2C39.5288 47.76 39.3421 48.2267 38.9688 48.6C38.5954 48.9733 38.1354 49.16 37.5888 49.16Z" fill="white"/>
<path d="M31.392 40.128C30.7893 40.128 30.248 40.0027 29.768 39.752C29.288 39.5013 28.912 39.1547 28.64 38.712C28.368 38.264 28.232 37.76 28.232 37.2C28.232 36.64 28.368 36.1387 28.64 35.696C28.912 35.248 29.288 34.8987 29.768 34.648C30.248 34.3973 30.7893 34.272 31.392 34.272C31.9947 34.272 32.536 34.3973 33.016 34.648C33.496 34.8987 33.872 35.248 34.144 35.696C34.416 36.1387 34.552 36.64 34.552 37.2C34.552 37.76 34.416 38.264 34.144 38.712C33.872 39.1547 33.496 39.5013 33.016 39.752C32.536 40.0027 31.9947 40.128 31.392 40.128ZM31.392 38.6C31.6267 38.6 31.8373 38.544 32.024 38.432C32.216 38.3147 32.368 38.152 32.48 37.944C32.592 37.7307 32.648 37.4827 32.648 37.2C32.648 36.9173 32.592 36.672 32.48 36.464C32.368 36.2507 32.216 36.088 32.024 35.976C31.8373 35.8587 31.6267 35.8 31.392 35.8C31.1573 35.8 30.944 35.8587 30.752 35.976C30.5653 36.088 30.416 36.2507 30.304 36.464C30.192 36.672 30.136 36.9173 30.136 37.2C30.136 37.4827 30.192 37.7307 30.304 37.944C30.416 38.152 30.5653 38.3147 30.752 38.432C30.944 38.544 31.1573 38.6 31.392 38.6ZM32.4764 43.048H34.1164V45.416C33.7857 45.6453 33.4017 45.8213 32.9644 45.944C32.5271 46.0667 32.0977 46.128 31.6764 46.128C31.0791 46.128 30.5431 46.0053 30.0684 45.76C29.5937 45.5093 29.2204 45.1627 28.9484 44.72C28.6817 44.272 28.5484 43.7653 28.5484 43.2C28.5484 42.6347 28.6817 42.1307 28.9484 41.688C29.2204 41.24 29.5964 40.8933 30.0764 40.648C30.5617 40.3973 31.1084 40.272 31.7164 40.272C32.2657 40.272 32.7564 40.3653 33.1884 40.552C33.6257 40.7333 33.9884 41 34.2764 41.352L33.0684 42.416C32.7164 42.0053 32.2977 41.8 31.8124 41.8C31.3964 41.8 31.0657 41.9253 30.8204 42.176C30.5751 42.4267 30.4524 42.768 30.4524 43.2C30.4524 43.6213 30.5724 43.96 30.8124 44.216C31.0577 44.472 31.3831 44.6 31.7884 44.6C32.0284 44.6 32.2577 44.5547 32.4764 44.464V43.048Z" fill="#F9D342"/>
</svg>
